<svg width="21" height="20" viewBox="0 0 21 20" fill="none" xmlns="http://www.w3.org/2000/svg">
<path d="M20.54 8.74002L19.19 7.16002C18.94 6.86002 18.73 6.30002 18.73 5.90002V4.20002C18.73 3.14002 17.86 2.27002 16.8 2.27002H15.1C14.7 2.27002 14.13 2.06002 13.83 1.81002L12.25 0.460017C11.56 -0.129983 10.43 -0.129983 9.73998 0.460017L8.13998 1.81002C7.83998 2.06002 7.27998 2.27002 6.87998 2.27002H5.14998C4.08999 2.27002 3.21998 3.14002 3.21998 4.20002V5.90002C3.21998 6.29002 3.01998 6.85002 2.76998 7.15002L1.41999 8.74002C0.839985 9.44002 0.839985 10.56 1.41999 11.24L2.76998 12.83C3.01998 13.12 3.21998 13.69 3.21998 14.08V15.79C3.21998 16.85 4.08999 17.72 5.14998 17.72H6.88998C7.27998 17.72 7.84998 17.93 8.14998 18.18L9.72998 19.53C10.42 20.12 11.55 20.12 12.24 19.53L13.82 18.18C14.12 17.93 14.68 17.72 15.08 17.72H16.78C17.84 17.72 18.71 16.85 18.71 15.79V14.09C18.71 13.69 18.92 13.13 19.17 12.83L20.52 11.25C21.13 10.57 21.13 9.44002 20.54 8.74002ZM10.23 6.13002C10.23 5.72002 10.57 5.38002 10.98 5.38002C11.39 5.38002 11.73 5.72002 11.73 6.13002V10.96C11.73 11.37 11.39 11.71 10.98 11.71C10.57 11.71 10.23 11.37 10.23 10.96V6.13002ZM10.98 14.87C10.43 14.87 9.97998 14.42 9.97998 13.87C9.97998 13.32 10.42 12.87 10.98 12.87C11.53 12.87 11.98 13.32 11.98 13.87C11.98 14.42 11.54 14.87 10.98 14.87Z" fill="white"/>
</svg>
