<svg width="20" height="20" viewBox="0 0 20 20" fill="none" xmlns="http://www.w3.org/2000/svg">
<path d="M5.80002 20L14.18 20C17.82 20 19.99 17.83 19.99 14.19L19.99 5.82C19.99 2.17 17.82 -1.89707e-07 14.18 -5.07926e-07L5.81002 -1.23965e-06C2.17002 -1.55787e-06 2.25396e-05 2.17 2.22214e-05 5.81L2.14888e-05 14.19C-0.00997883 17.83 2.16002 20 5.80002 20ZM3.99002 9.25L14.18 9.25L11.17 6.24C10.88 5.95 10.88 5.47 11.17 5.18C11.32 5.03 11.51 4.96 11.7 4.96C11.89 4.96 12.08 5.03 12.23 5.18L16.52 9.47C16.66 9.61 16.74 9.8 16.74 10C16.74 10.2 16.66 10.39 16.52 10.53L12.23 14.82C11.94 15.11 11.46 15.11 11.17 14.82C10.88 14.53 10.88 14.05 11.17 13.76L14.18 10.75L3.99002 10.75C3.58002 10.75 3.24002 10.41 3.24002 10C3.24002 9.59 3.58002 9.25 3.99002 9.25Z" fill="#005461"/>
</svg>
